<?xml version="1.0" encoding="UTF-8" standalone="no"?>
<!-- Created using Krita: http://krita.org -->

<svg
   xmlns:dc="http://purl.org/dc/elements/1.1/"
   xmlns:cc="http://creativecommons.org/ns#"
   xmlns:rdf="http://www.w3.org/1999/02/22-rdf-syntax-ns#"
   xmlns:svg="http://www.w3.org/2000/svg"
   xmlns="http://www.w3.org/2000/svg"
   xmlns:sodipodi="http://sodipodi.sourceforge.net/DTD/sodipodi-0.dtd"
   xmlns:inkscape="http://www.inkscape.org/namespaces/inkscape"
   width="73.44pt"
   height="31.92pt"
   viewBox="0 0 73.44 31.92"
   version="1.1"
   id="svg63"
   sodipodi:docname="logo.svg"
   inkscape:version="0.92.4 (33fec40, 2019-01-16)">
  <metadata
     id="metadata67">
    <rdf:RDF>
      <cc:Work
         rdf:about="">
        <dc:format>image/svg+xml</dc:format>
        <dc:type
           rdf:resource="http://purl.org/dc/dcmitype/StillImage" />
        <dc:title />
      </cc:Work>
    </rdf:RDF>
  </metadata>
  <sodipodi:namedview
     pagecolor="#ffffff"
     bordercolor="#666666"
     borderopacity="1"
     objecttolerance="10"
     gridtolerance="10"
     guidetolerance="10"
     inkscape:pageopacity="0"
     inkscape:pageshadow="2"
     inkscape:window-width="1299"
     inkscape:window-height="713"
     id="namedview65"
     showgrid="false"
     inkscape:zoom="8.1495095"
     inkscape:cx="47.194682"
     inkscape:cy="21.28"
     inkscape:window-x="1920"
     inkscape:window-y="27"
     inkscape:window-maximized="1"
     inkscape:current-layer="svg63"
     inkscape:lockguides="true" />
  <defs
     id="defs57" />
  <path
     id="shape0"
     d="m 4.2325678,21.043526 -0.15963,-8.5338 c 0.31925,-1.777866 1.43662,-2.6668 3.35211,-2.6668 1.91549,0 6.1721312,0.059262 12.7698912,0.177787"
     style="opacity:0.5;fill:none;stroke:#fbffff;stroke-width:1.44000006;stroke-linecap:square;stroke-linejoin:bevel;stroke-opacity:1"
     inkscape:connector-curvature="0" />
  <path
     id="shape1"
     d="m 69.20745,21.043526 0.15962,-8.5338 c -0.31925,-1.777866 -1.43662,-2.6668 -3.35211,-2.6668 -1.91549,0 -6.17213,0.059262 -12.769889,0.177787"
     style="opacity:0.5;fill:none;stroke:#fbffff;stroke-width:1.44000006;stroke-linecap:square;stroke-linejoin:bevel;stroke-opacity:1"
     inkscape:connector-curvature="0" />
  <circle
     id="shape01"
     r="11.28"
     cx="36.480003"
     cy="16.08"
     style="opacity:0.5;fill:none;stroke:#fbffff;stroke-width:1.44000006;stroke-linecap:square;stroke-linejoin:bevel;stroke-opacity:1" />
  <circle
     id="shape02"
     r="9.3599997"
     cx="36.480003"
     cy="16.08"
     style="opacity:0.8;fill:none;stroke:#fbffff;stroke-width:0.95999998;stroke-linecap:square;stroke-linejoin:bevel;stroke-opacity:1;image-rendering:auto" />
  <g
     aria-label="epicShots"
     style="font-weight:600;font-size:15.19713974px;font-family:Dyuthi;fill:#000000;stroke-width:1.26642835"
     id="shape0-6">
    <path
       d="m 11.617807,15.346977 q 0.549116,0 0.994344,0.244875 0.519434,0.289399 0.76431,1.150175 h -3.25017 q 0.126148,-0.645582 0.452649,-0.942401 0.504593,-0.452649 1.038867,-0.452649 z m -0.01484,-1.320845 q -1.40247,-0.02968 -2.4042347,0.979503 -0.9943441,1.009185 -0.9943441,2.433917 0,1.424731 1.053708,2.433917 1.0166058,0.972082 2.1296768,0.972082 1.55088,0.0074 2.433917,-0.47491 0.60848,-0.333922 0.682684,-0.667843 l 0.01484,-0.0074 q 0.09647,-0.400706 -0.140989,-0.742048 -0.304239,-0.415547 -0.801411,-0.192932 l -0.76431,0.341342 q -1.372788,0.608479 -2.196461,-0.140989 -0.222615,-0.215194 -0.437809,-0.890458 h 4.133207 q 0.593638,0 0.593638,-0.62332 v -0.0074 q 0.0074,-1.491517 -0.994344,-2.441338 -0.994344,-0.949821 -2.307769,-0.972082 z"
       style="stroke-width:1.26642835"
       id="path5198" />
    <path
       d="m 20.529802,17.936724 q 0,0.512013 -0.170671,0.920139 -0.207773,0.437808 -0.534274,0.571377 -0.675264,0.326501 -1.350528,0.08163 -0.593638,-0.215194 -0.734627,-0.653002 v -2.515542 q 0,-0.838514 0.704946,-1.068549 0.356183,-0.126148 0.690104,-0.0742 0.586218,0 0.986924,0.541695 0.408126,0.541695 0.408126,1.306004 z m -1.216958,2.901407 q 1.357947,0 2.300348,-1.001765 0.949821,-1.001764 0.949821,-2.441337 0,-1.409891 -0.949821,-2.411656 -0.942401,-1.001764 -2.300348,-1.001764 -0.845935,0 -1.573142,0.437808 v 0 q 0.0074,-0.15583 -0.133568,-0.31166 -0.111308,-0.126148 -0.29682,-0.126148 h -1.276322 q -0.200353,0 -0.31166,0.126148 -0.118728,0.133568 -0.118728,0.31166 v 8.296095 q 0,0.460069 0.296819,0.756889 0.29682,0.296819 0.756889,0.296819 h 0.02968 q 0.430388,0.0074 0.734628,-0.296819 0.31908,-0.319081 0.31908,-0.756889 v -2.31519 q 0.727207,0.437809 1.573142,0.437809 z"
       style="stroke-width:1.26642835"
       id="path5200" />
    <path
       d="m 24.566542,20.860392 q -0.460069,0 -0.78657,-0.31908 -0.319081,-0.326501 -0.319081,-0.786571 v -4.378082 q 0,-0.46007 0.326501,-0.786571 0.326501,-0.326501 0.77915,-0.326501 h 0.01484 q 0.445229,0.0074 0.77173,0.326501 0.326501,0.326501 0.326501,0.786571 v 4.378082 q 0,0.46007 -0.326501,0.786571 -0.319081,0.31908 -0.77173,0.31908 z m 0.697525,-7.546626 q -0.348762,0.341342 -0.816252,0.341342 -0.474911,0 -0.808832,-0.341342 -0.326502,-0.326501 -0.326502,-0.808833 0,-0.46749 0.326502,-0.801411 0.333921,-0.333922 0.808832,-0.333922 0.460069,0 0.816252,0.333922 0.319081,0.31166 0.326501,0.801411 -0.0074,0.482332 -0.326501,0.808833 z"
       style="stroke-width:1.26642835"
       id="path5202" />
    <path
       d="m 31.949918,20.021878 q 0,-0.348762 -0.267137,-0.563956 -0.274558,-0.244876 -0.6159,-0.192933 -0.333921,0.05194 -0.62332,0.02968 -0.690104,0 -1.202117,-0.541695 -0.512013,-0.541695 -0.512013,-1.306004 v -0.08162 q 0,-0.497172 0.230035,-0.905299 0.244875,-0.430387 0.63074,-0.578797 0.704946,-0.274558 1.439573,-0.140989 0.348763,0.08163 0.653002,-0.133569 0.267137,-0.215193 0.267137,-0.593638 v -0.05194 q 0,-0.244876 -0.133568,-0.46007 -0.163251,-0.192932 -0.408127,-0.274558 -0.512013,-0.133568 -1.053707,-0.148409 -1.54346,0 -2.62685,1.001764 -1.113072,1.001765 -1.113072,2.426497 0,1.40247 1.113072,2.411655 1.08339,1.001765 2.62685,1.001765 0.541694,0 1.053707,-0.140989 0.244876,-0.05194 0.408127,-0.267137 0.133568,-0.207774 0.133568,-0.46007 z"
       style="stroke-width:1.26642835"
       id="path5204" />
    <path
       d="m 36.966162,15.361818 q -0.949821,-0.363604 -1.291163,-0.578798 -0.393285,-0.259716 -0.393285,-0.667843 0,-0.348762 0.296819,-0.593638 0.356183,-0.267137 0.994344,-0.259717 0.497172,0 1.120492,0.178092 0.356183,0.09647 0.653002,-0.08163 0.31166,-0.185511 0.415547,-0.526853 l 0.01484,-0.01484 q 0.08163,-0.348763 -0.103887,-0.690105 -0.192932,-0.326501 -0.541695,-0.408126 -0.964662,-0.237456 -1.536039,-0.237456 -1.580562,-0.01484 -2.560065,0.77173 -0.972082,0.756889 -0.972082,2.025791 0,1.86996 2.574906,2.7901 0.838514,0.296819 1.179856,0.571377 0.333921,0.267137 0.333921,0.660422 0,0.452649 -0.378444,0.690105 -0.378445,0.274557 -1.031447,0.274557 -0.541695,0 -1.432152,-0.281978 -0.378445,-0.126148 -0.719787,0.06678 -0.333921,0.185512 -0.430387,0.563957 l -0.01484,0.02968 q -0.08163,0.348762 0.111307,0.675263 0.185512,0.326501 0.526854,0.408127 1.098231,0.326501 1.825438,0.326501 1.921903,0 2.923668,-0.92014 0.838514,-0.78657 0.838514,-1.981267 0,-0.972083 -0.593638,-1.647347 -0.571377,-0.682684 -1.810597,-1.142753 z"
       style="stroke-width:1.26642835"
       id="path5206" />
    <path
       d="m 47.258366,17.469234 q 0,-1.580562 -0.786571,-2.582327 -0.77915,-1.009185 -2.463598,-0.831094 -0.742048,0.08163 -1.573142,0.816253 l -0.02226,-2.626849 q 0,-0.437808 -0.296819,-0.734628 -0.311661,-0.296819 -0.749469,-0.296819 h -0.01484 q -0.430387,0 -0.756888,0.296819 -0.29682,0.31166 -0.29682,0.749469 v 7.60599 q 0,0.445229 0.29682,0.749468 0.296819,0.296819 0.749468,0.296819 h 0.0074 q 0.437809,0 0.749469,-0.296819 0.31166,-0.304239 0.31166,-0.749468 v -3.138862 q 0,0 0,-0.01484 0,-0.111307 0.02226,-0.163251 0.08163,-0.460069 0.704946,-0.838514 0.719786,-0.430388 1.39505,-0.111307 0.638161,0.31166 0.638161,1.454414 v 2.827202 q 0,0.430388 0.296819,0.734627 0.296819,0.296819 0.734627,0.296819 h 0.02226 q 0.437808,0 0.734627,-0.296819 0.31166,-0.304239 0.31166,-0.734627 z"
       style="stroke-width:1.26642835"
       id="path5208" />
    <path
       d="m 51.577085,19.673116 q -0.497172,-0.0074 -0.994344,-0.556536 -0.497172,-0.541695 -0.504593,-2.211303 0,-0.742048 0.504593,-1.313425 0.422967,-0.46749 0.994344,-0.47491 0.660423,0.0074 1.098231,0.47491 0.385865,0.430388 0.393285,1.313425 -0.0074,1.758654 -0.393285,2.211303 -0.497172,0.549115 -1.098231,0.556536 z m 3.576671,-2.278087 q -0.0074,-1.469255 -1.053708,-2.508122 -1.038867,-1.046287 -2.530383,-1.046287 -0.103887,0 -0.200353,0.0074 -1.283743,-0.0074 -2.32261,1.024026 -1.031447,1.031447 -1.038867,2.515542 0,1.476675 1.068549,2.545224 1.075969,1.068549 2.500701,1.009185 0.09647,0.0074 0.200353,0 1.261481,0.0074 2.315189,-1.031446 1.053708,-1.046288 1.061129,-2.515542 z"
       style="stroke-width:1.26642835"
       id="path5210" />
    <path
       d="m 59.24986,19.101739 q -0.630741,-0.326501 -0.623321,-1.461834 v -1.951586 h 0.623321 q 0.289398,0 0.482331,-0.192933 0.207773,-0.185512 0.207773,-0.497172 v -0.01484 q 0,-0.274557 -0.207773,-0.489751 -0.207774,-0.215194 -0.482331,-0.215194 h -0.623321 v -0.756889 q -0.0074,-0.348762 -0.222614,-0.62332 -0.296819,-0.378445 -0.549115,-0.378445 h -0.02968 q -0.408127,-0.0074 -0.630741,0.178092 -0.408126,0.30424 -0.408126,0.823673 v 0.756889 h -0.267138 q -0.296819,0 -0.504592,0.215194 -0.200353,0.200353 -0.200353,0.489751 v 0.01484 q 0,0.31166 0.200353,0.497172 0.200353,0.192933 0.504592,0.192933 h 0.267138 v 1.818017 0 q 0,1.387629 0.460069,2.300348 0.541695,1.061129 1.432153,1.053708 0.549115,0.0074 0.801411,-0.756889 0.103887,-0.326501 0.06678,-0.571376 -0.05194,-0.289399 -0.296819,-0.430388 z"
       style="stroke-width:1.26642835"
       id="path5212" />
    <path
       d="m 60.83784,19.754741 q 0.06678,-0.281978 0.363603,-0.46007 0.267137,-0.16325 0.578798,-0.05936 0.601058,0.192933 1.061128,0.178092 0.890457,-0.01484 0.890457,-0.556536 0,-0.244876 -0.200353,-0.415547 -0.178091,-0.140989 -0.771729,-0.348762 -1.929325,-0.660423 -1.914484,-2.01837 0.02226,-0.972083 0.749469,-1.565721 0.734627,-0.6159 1.973847,-0.623321 0.578797,-0.0074 1.194697,0.163251 0.274558,0.0742 0.430388,0.326501 0.16325,0.259717 0.08162,0.541695 v 0.0074 q -0.05194,0.281979 -0.326501,0.45265 -0.267137,0.16325 -0.563957,0.08163 -0.408126,-0.111307 -0.749468,-0.126148 -0.793991,-0.01484 -0.793991,0.526854 0,0.230035 0.244876,0.408126 0.207773,0.163251 0.838514,0.378444 1.780915,0.630741 1.795756,2.048052 0.01484,0.972083 -0.712366,1.573142 -0.734628,0.608479 -2.16678,0.608479 -0.749468,0 -1.491516,-0.200353 -0.259717,-0.07421 -0.430388,-0.356183 -0.16325,-0.259717 -0.08163,-0.541695 z"
       style="stroke-width:1.26642835"
       id="path5214" />
  </g>
  <g
     aria-label="epicShots"
     style="font-weight:600;font-size:15.19713974px;font-family:Dyuthi;fill:#ffffff;stroke-width:1.26642835"
     id="shape0-6-5">
    <path
       d="m 10.955736,15.383516 q 0.549115,0 0.994344,0.244876 0.519434,0.289398 0.764309,1.150174 H 9.4642199 Q 9.590368,16.132984 9.9168691,15.836165 10.421462,15.383516 10.955736,15.383516 Z m -0.01484,-1.320845 q -1.4024703,-0.02968 -2.4042349,0.979503 -0.9943441,1.009185 -0.9943441,2.433917 0,1.424732 1.0537079,2.433917 1.0166056,0.972082 2.1296771,0.972082 1.55088,0.0074 2.433917,-0.47491 0.608479,-0.333922 0.682684,-0.667843 l 0.01484,-0.0074 q 0.09647,-0.400706 -0.140989,-0.742048 -0.30424,-0.415547 -0.801412,-0.192932 l -0.764309,0.341342 Q 10.777645,19.746757 9.9539715,18.997289 9.7313571,18.782095 9.5161633,18.106831 H 13.64937 q 0.593638,0 0.593638,-0.62332 v -0.0074 q 0.0074,-1.491516 -0.994344,-2.441338 -0.994344,-0.949821 -2.307769,-0.972082 z"
       style="fill:#ffffff;stroke-width:1.26642835"
       id="path5217" />
    <path
       d="m 19.867731,17.973263 q 0,0.512013 -0.170671,0.920139 -0.207774,0.437808 -0.534275,0.571377 -0.675263,0.326501 -1.350527,0.08162 Q 17.21862,19.33121 17.077631,18.893402 V 16.37786 q 0,-0.838514 0.704945,-1.068549 0.356183,-0.126148 0.690105,-0.0742 0.586218,0 0.986923,0.541695 0.408127,0.541695 0.408127,1.306004 z m -1.216959,2.901407 q 1.357948,0 2.300349,-1.001765 0.949821,-1.001764 0.949821,-2.441337 0,-1.409891 -0.949821,-2.411656 -0.942401,-1.001764 -2.300349,-1.001764 -0.845934,0 -1.573141,0.437808 v 0 q 0.0074,-0.15583 -0.133569,-0.31166 -0.111307,-0.126148 -0.296819,-0.126148 h -1.276322 q -0.200353,0 -0.31166,0.126148 -0.118728,0.133568 -0.118728,0.31166 v 8.296095 q 0,0.460069 0.296819,0.756889 0.296819,0.296819 0.756889,0.296819 h 0.02968 q 0.430388,0.0074 0.734627,-0.296819 0.319081,-0.319081 0.319081,-0.756889 v -2.315189 q 0.727207,0.437808 1.573141,0.437808 z"
       style="fill:#ffffff;stroke-width:1.26642835"
       id="path5219" />
    <path
       d="m 23.904471,20.896931 q -0.46007,0 -0.786571,-0.31908 -0.31908,-0.326501 -0.31908,-0.786571 v -4.378082 q 0,-0.46007 0.326501,-0.786571 0.326501,-0.326501 0.77915,-0.326501 h 0.01484 q 0.445229,0.0074 0.77173,0.326501 0.326501,0.326501 0.326501,0.786571 v 4.378082 q 0,0.46007 -0.326501,0.786571 -0.319081,0.31908 -0.77173,0.31908 z m 0.697525,-7.546626 q -0.348762,0.341342 -0.816253,0.341342 -0.47491,0 -0.808832,-0.341342 -0.326501,-0.326501 -0.326501,-0.808832 0,-0.467491 0.326501,-0.801412 0.333922,-0.333922 0.808832,-0.333922 0.46007,0 0.816253,0.333922 0.319081,0.31166 0.326501,0.801412 -0.0074,0.482331 -0.326501,0.808832 z"
       style="fill:#ffffff;stroke-width:1.26642835"
       id="path5221" />
    <path
       d="m 31.287847,20.058417 q 0,-0.348762 -0.267137,-0.563956 -0.274558,-0.244876 -0.6159,-0.192933 -0.333921,0.05194 -0.62332,0.02968 -0.690104,0 -1.202117,-0.541695 Q 28.06736,18.24782 28.06736,17.483511 v -0.08162 q 0,-0.497172 0.230034,-0.905298 0.244876,-0.430388 0.630741,-0.578798 0.704945,-0.274557 1.439573,-0.140989 0.348762,0.08162 0.653002,-0.133568 0.267137,-0.215194 0.267137,-0.593639 v -0.05194 q 0,-0.244876 -0.133568,-0.46007 -0.163251,-0.192932 -0.408127,-0.274557 -0.512013,-0.133569 -1.053708,-0.14841 -1.543459,0 -2.626849,1.001765 -1.113072,1.001764 -1.113072,2.426496 0,1.40247 1.113072,2.411655 1.08339,1.001765 2.626849,1.001765 0.541695,0 1.053708,-0.140989 0.244876,-0.05194 0.408127,-0.267137 0.133568,-0.207774 0.133568,-0.46007 z"
       style="fill:#ffffff;stroke-width:1.26642835"
       id="path5223" />
    <path
       d="m 36.304091,15.398357 q -0.949821,-0.363604 -1.291163,-0.578798 -0.393286,-0.259716 -0.393286,-0.667843 0,-0.348762 0.296819,-0.593638 0.356183,-0.267137 0.994345,-0.259717 0.497172,0 1.120492,0.178092 0.356183,0.09647 0.653002,-0.08162 0.31166,-0.185512 0.415547,-0.526854 l 0.01484,-0.01484 q 0.08163,-0.348763 -0.103887,-0.690105 -0.192932,-0.326501 -0.541695,-0.408126 -0.964662,-0.237455 -1.536039,-0.237455 -1.580562,-0.01484 -2.560065,0.771729 -0.972083,0.756889 -0.972083,2.025791 0,1.86996 2.574906,2.7901 0.838514,0.296819 1.179856,0.571377 0.333922,0.267137 0.333922,0.660422 0,0.452649 -0.378445,0.690105 -0.378444,0.274557 -1.031446,0.274557 -0.541695,0 -1.432152,-0.281978 -0.378445,-0.126148 -0.719787,0.06678 -0.333921,0.185512 -0.430388,0.563957 l -0.01484,0.02968 q -0.08163,0.348762 0.111307,0.675263 0.185512,0.326501 0.526854,0.408127 1.09823,0.326501 1.825437,0.326501 1.921904,0 2.923669,-0.92014 0.838514,-0.78657 0.838514,-1.981267 0,-0.972083 -0.593638,-1.647347 -0.571377,-0.682684 -1.810597,-1.142753 z"
       style="fill:#ffffff;stroke-width:1.26642835"
       id="path5225" />
    <path
       d="m 46.596295,17.505773 q 0,-1.580562 -0.786571,-2.582327 -0.77915,-1.009185 -2.463599,-0.831093 -0.742048,0.08163 -1.573141,0.816252 l -0.02226,-2.626849 q 0,-0.437808 -0.296819,-0.734628 -0.31166,-0.296819 -0.749468,-0.296819 h -0.01484 q -0.430388,0 -0.756889,0.296819 -0.296819,0.311661 -0.296819,0.749469 v 7.60599 q 0,0.445229 0.296819,0.749468 0.296819,0.29682 0.749469,0.29682 h 0.0074 q 0.437808,0 0.749468,-0.29682 0.31166,-0.304239 0.31166,-0.749468 v -3.138862 q 0,0 0,-0.01484 0,-0.111307 0.02226,-0.163251 0.08163,-0.460069 0.704945,-0.838514 0.719787,-0.430388 1.39505,-0.111307 0.638161,0.31166 0.638161,1.454414 v 2.827202 q 0,0.430388 0.29682,0.734627 0.296819,0.29682 0.734627,0.29682 h 0.02226 q 0.437809,0 0.734628,-0.29682 0.31166,-0.304239 0.31166,-0.734627 z"
       style="fill:#ffffff;stroke-width:1.26642835"
       id="path5227" />
    <path
       d="m 50.915014,19.709655 q -0.497172,-0.0074 -0.994344,-0.556536 -0.497172,-0.541695 -0.504593,-2.211303 0,-0.742048 0.504593,-1.313424 0.422967,-0.467491 0.994344,-0.474911 0.660422,0.0074 1.098231,0.474911 0.385865,0.430387 0.393285,1.313424 -0.0074,1.758654 -0.393285,2.211303 -0.497172,0.549115 -1.098231,0.556536 z m 3.57667,-2.278087 q -0.0074,-1.469255 -1.053708,-2.508122 -1.038866,-1.046287 -2.530383,-1.046287 -0.103886,0 -0.200353,0.0074 -1.283742,-0.0074 -2.322609,1.024026 -1.031447,1.031447 -1.038867,2.515542 0,1.476676 1.068549,2.545224 1.075969,1.068549 2.500701,1.009185 0.09647,0.0074 0.200353,0 1.261481,0.0074 2.315189,-1.031446 1.053708,-1.046287 1.061128,-2.515542 z"
       style="fill:#ffffff;stroke-width:1.26642835"
       id="path5229" />
    <path
       d="m 58.587788,19.138278 q -0.63074,-0.326501 -0.62332,-1.461834 v -1.951586 h 0.62332 q 0.289399,0 0.482331,-0.192933 0.207774,-0.185512 0.207774,-0.497172 v -0.01484 q 0,-0.274557 -0.207774,-0.489751 -0.207773,-0.215194 -0.482331,-0.215194 h -0.62332 v -0.756889 q -0.0074,-0.348762 -0.222614,-0.62332 -0.296819,-0.378444 -0.549116,-0.378444 h -0.02968 q -0.408126,-0.0074 -0.63074,0.178091 -0.408127,0.30424 -0.408127,0.823673 v 0.756889 h -0.267137 q -0.296819,0 -0.504592,0.215194 -0.200353,0.200353 -0.200353,0.489751 v 0.01484 q 0,0.31166 0.200353,0.497172 0.200353,0.192933 0.504592,0.192933 h 0.267137 v 1.818017 0 q 0,1.387629 0.46007,2.300348 0.541695,1.061129 1.432152,1.053708 0.549116,0.0074 0.801412,-0.756889 0.103887,-0.326501 0.06678,-0.571376 -0.05194,-0.289399 -0.296819,-0.430388 z"
       style="fill:#ffffff;stroke-width:1.26642835"
       id="path5231" />
    <path
       d="m 60.175769,19.79128 q 0.06678,-0.281978 0.363603,-0.46007 0.267137,-0.16325 0.578797,-0.05936 0.601059,0.192933 1.061129,0.178092 0.890457,-0.01484 0.890457,-0.556536 0,-0.244876 -0.200353,-0.415547 -0.178091,-0.140989 -0.77173,-0.348762 -1.929324,-0.660423 -1.914483,-2.01837 0.02226,-0.972083 0.749468,-1.565721 0.734628,-0.6159 1.973848,-0.62332 0.578797,-0.0074 1.194697,0.16325 0.274557,0.0742 0.430387,0.326501 0.163251,0.259717 0.08163,0.541695 v 0.0074 q -0.05194,0.281978 -0.326501,0.452649 -0.267138,0.16325 -0.563957,0.08163 -0.408126,-0.111307 -0.749468,-0.126148 -0.793991,-0.01484 -0.793991,0.526854 0,0.230035 0.244876,0.408126 0.207773,0.163251 0.838514,0.378444 1.780914,0.630741 1.795755,2.048053 0.01484,0.972082 -0.712366,1.573141 -0.734627,0.608479 -2.166779,0.608479 -0.749469,0 -1.491516,-0.200353 -0.259717,-0.0742 -0.430388,-0.356183 -0.163251,-0.259716 -0.08162,-0.541695 z"
       style="fill:#ffffff;stroke-width:1.26642835"
       id="path5233" />
  </g>
</svg>
