<?xml version="1.0" encoding="UTF-8" standalone="no"?>
<!-- Generator: Adobe Illustrator 19.0.0, SVG Export Plug-In . SVG Version: 6.00 Build 0)  -->

<svg
   xmlns:dc="http://purl.org/dc/elements/1.1/"
   xmlns:cc="http://creativecommons.org/ns#"
   xmlns:rdf="http://www.w3.org/1999/02/22-rdf-syntax-ns#"
   xmlns:svg="http://www.w3.org/2000/svg"
   xmlns="http://www.w3.org/2000/svg"
   xmlns:sodipodi="http://sodipodi.sourceforge.net/DTD/sodipodi-0.dtd"
   xmlns:inkscape="http://www.inkscape.org/namespaces/inkscape"
   version="1.1"
   id="Capa_1"
   x="0px"
   y="0px"
   viewBox="0 0 489.2 489.2"
   style="enable-background:new 0 0 489.2 489.2;"
   xml:space="preserve"
   sodipodi:docname="transfer2.svg"
   inkscape:version="0.92.4 (33fec40, 2019-01-16)"><metadata
   id="metadata938"><rdf:RDF><cc:Work
       rdf:about=""><dc:format>image/svg+xml</dc:format><dc:type
         rdf:resource="http://purl.org/dc/dcmitype/StillImage" /><dc:title></dc:title></cc:Work></rdf:RDF></metadata><defs
   id="defs936" /><sodipodi:namedview
   pagecolor="#ffffff"
   bordercolor="#666666"
   borderopacity="1"
   objecttolerance="10"
   gridtolerance="10"
   guidetolerance="10"
   inkscape:pageopacity="0"
   inkscape:pageshadow="2"
   inkscape:window-width="1920"
   inkscape:window-height="1052"
   id="namedview934"
   showgrid="false"
   inkscape:zoom="1.077269"
   inkscape:cx="244.60001"
   inkscape:cy="244.60001"
   inkscape:window-x="0"
   inkscape:window-y="0"
   inkscape:window-maximized="1"
   inkscape:current-layer="Capa_1" />
<g
   id="g901"
   transform="rotate(90,244.6003,244.6)"
   style="fill:#ffffff">
	<g
   id="g899"
   style="fill:#ffffff">
		<path
   d="m 481.044,356.52052 c 0,-8.45567 -5.5,-15.29482 -12.3,-15.29482 L 98.31421,331.94297 123.644,249.70546 c 2.25461,-7.31999 4.8,-15.54352 0,-21.51223 -4.8,-5.96871 -12.5,-5.96871 -17.3,0 l -94.5,117.509 c -4.8,5.96871 -4.8,15.54352 0,21.51223 l 94.5,117.50901 c 2.4,2.98435 5.5,4.47653 8.7,4.47653 3.2,0 6.3,-1.49218 8.7,-4.47653 4.8,-5.96871 4.8,-15.54352 0,-21.51223 L 98.41421,380.04546 468.944,371.691 c 6.59832,-0.14877 12.1,-6.7148 12.1,-15.17048 z"
   id="path895"
   inkscape:connector-curvature="0"
   style="stroke-width:1.11511505;fill:#ffffff"
   sodipodi:nodetypes="sscssssssssscss" />
		<path
   d="M 482.00027,124.15521 385.27436,6.3491504 c -4.91306,-5.99013846 -12.79443,-5.99013846 -17.70749,0 -4.91307,5.9901386 -4.91307,15.5993196 0,21.5894586 l 21.49376,82.566061 -374.824821,9.28273 c -6.9580381,0.17232 -12.5897218,6.8637 -12.5897218,15.34973 0,8.48603 5.6295502,15.34973 12.5897218,15.34973 l 375.753091,6.49791 -22.42203,85.10129 c -4.91307,5.99014 -4.91307,15.59932 0,21.58946 2.45653,2.99507 5.62955,4.49261 8.90492,4.49261 3.27537,0 6.44839,-1.49754 8.90492,-4.49261 l 96.72591,-117.93085 c 4.81071,-5.86534 4.81071,-15.59932 -0.10231,-21.58946 z"
   id="path897"
   inkscape:connector-curvature="0"
   style="stroke-width:1.13019478;fill:#ffffff"
   sodipodi:nodetypes="ccsscsssccsssscc" />
	</g>
</g>
<g
   id="g903">
</g>
<g
   id="g905">
</g>
<g
   id="g907">
</g>
<g
   id="g909">
</g>
<g
   id="g911">
</g>
<g
   id="g913">
</g>
<g
   id="g915">
</g>
<g
   id="g917">
</g>
<g
   id="g919">
</g>
<g
   id="g921">
</g>
<g
   id="g923">
</g>
<g
   id="g925">
</g>
<g
   id="g927">
</g>
<g
   id="g929">
</g>
<g
   id="g931">
</g>
</svg>