<?xml version="1.0" encoding="UTF-8" standalone="no"?>
<svg
   xmlns:dc="http://purl.org/dc/elements/1.1/"
   xmlns:cc="http://creativecommons.org/ns#"
   xmlns:rdf="http://www.w3.org/1999/02/22-rdf-syntax-ns#"
   xmlns:svg="http://www.w3.org/2000/svg"
   xmlns="http://www.w3.org/2000/svg"
   xmlns:sodipodi="http://sodipodi.sourceforge.net/DTD/sodipodi-0.dtd"
   xmlns:inkscape="http://www.inkscape.org/namespaces/inkscape"
   viewBox="0 -256 1792 1792"
   id="svg3888"
   version="1.1"
   inkscape:version="0.92.4 (33fec40, 2019-01-16)"
   width="100%"
   height="100%"
   sodipodi:docname="Thumbs_up3.svg">
  <metadata
     id="metadata3898">
    <rdf:RDF>
      <cc:Work
         rdf:about="">
        <dc:format>image/svg+xml</dc:format>
        <dc:type
           rdf:resource="http://purl.org/dc/dcmitype/StillImage" />
        <dc:title></dc:title>
      </cc:Work>
    </rdf:RDF>
  </metadata>
  <defs
     id="defs3896" />
  <sodipodi:namedview
     pagecolor="#ffffff"
     bordercolor="#666666"
     borderopacity="1"
     objecttolerance="10"
     gridtolerance="10"
     guidetolerance="10"
     inkscape:pageopacity="0"
     inkscape:pageshadow="2"
     inkscape:window-width="1299"
     inkscape:window-height="713"
     id="namedview3894"
     showgrid="false"
     inkscape:zoom="0.26339286"
     inkscape:cx="918.20961"
     inkscape:cy="953.00633"
     inkscape:window-x="1920"
     inkscape:window-y="27"
     inkscape:window-maximized="1"
     inkscape:current-layer="svg3888" />
  <g
     transform="matrix(1,0,0,-1,129.0848,1346.1695)"
     id="g3890"
     style="fill:#000000;stroke:none;stroke-opacity:1">
    <path
       d="m 256,192 q 0,26 -19,45 -19,19 -45,19 -26,0 -45,-19 -19,-19 -19,-45 0,-26 19,-45 19,-19 45,-19 26,0 45,19 19,19 19,45 z m 1152,576 q 0,51 -39,89.5 -39,38.5 -89,38.5 H 928 q 0,58 48,159.5 48,101.5 48,160.5 0,98 -32,145 -32,47 -128,47 -26,-26 -38,-85 -12,-59 -30.5,-125.5 Q 777,1131 736,1088 714,1065 659,997 655,992 636,967 617,942 604.5,926 592,910 570,883.5 548,857 530,839.5 512,822 491.5,804 471,786 451.5,777 432,768 416,768 H 384 V 128 h 32 q 13,0 31.5,-3 18.5,-3 33,-6.5 14.5,-3.5 38,-11 Q 542,100 553.5,96 565,92 589,83.5 613,75 618,73 829,0 960,0 h 121 q 192,0 192,167 0,26 -5,56 30,16 47.5,52.5 17.5,36.5 17.5,73.5 0,37 -18,69 53,50 53,119 0,25 -10,55.5 -10,30.5 -25,47.5 32,1 53.5,47 21.5,46 21.5,81 z m 128,1 q 0,-89 -49,-163 9,-33 9,-69 0,-77 -38,-144 3,-21 3,-43 0,-101 -60,-178 1,-139 -85,-219.5 -86,-80.5 -227,-80.5 h -36 -93 q -96,0 -189.5,22.5 Q 677,-83 554,-40 438,0 416,0 H 128 Q 75,0 37.5,37.5 0,75 0,128 V 768 Q 0,821 37.5,858.5 75,896 128,896 h 274 q 36,24 137,155 58,75 107,128 24,25 35.5,85.5 11.5,60.5 30.5,126.5 19,66 62,108 39,37 90,37 84,0 151,-32.5 67,-32.5 102,-101.5 35,-69 35,-186 0,-93 -48,-192 h 176 q 104,0 180,-76 76,-76 76,-179 z"
       id="path3892"
       inkscape:connector-curvature="0"
       style="fill:#000000;stroke:none;stroke-opacity:1" />
  </g>
  <path
     style="opacity:0.5;fill:#000000;fill-opacity:1;stroke:none;stroke-width:3.79661012;stroke-opacity:1"
     d="m 1007.8096,1594.1164 c -78.47858,-10.8885 -166.09188,-34.2408 -292.33897,-77.9198 -89.93227,-31.1148 -125.28558,-40.2613 -169.47773,-43.847 l -31.7426,-2.5756 V 1153.7893 837.80458 l 25.62712,-1.8469 c 59.7778,-4.30805 108.20278,-46.94482 227.59857,-200.3937 25.18347,-32.3661 57.52697,-72.29282 71.87444,-88.72605 67.29399,-77.07684 75.63199,-93.59849 101.79952,-201.71462 24.08854,-99.52649 28.55263,-114.08776 40.98737,-133.69532 l 10.85458,-17.11589 25.379,2.71787 c 35.67,3.81993 68.6421,14.88009 85.2009,28.57977 16.568,13.70729 34.288,48.81564 41.1589,81.54746 2.63,12.52882 4.8051,43.28136 4.8336,68.33899 0.063,55.50487 -6.8635,81.0439 -46.385,171.02816 -29.3649,66.85915 -46.0138,119.10001 -46.0138,144.38172 v 16.52656 l 190.7797,1.08264 c 186.8405,1.06025 191.1495,1.25346 208.6891,9.35645 24.7356,11.42738 54.1109,40.00636 65.9104,64.12353 15.0296,30.71947 16.1877,58.80497 4.0324,97.79137 -14.8882,47.75152 -33.0949,71.92135 -60.3002,80.04989 -5.9841,1.78794 -5.7026,3.3253 2.941,16.06228 26.7018,39.34731 32.3335,111.00031 12.054,153.36601 -5.5347,11.5626 -16.3013,28.3107 -23.9257,37.2182 l -13.8626,16.1953 8.0613,24.5565 c 4.5152,13.7542 8.0613,34.366 8.0613,46.8564 0,42.6932 -24.2896,97.5904 -50.8965,115.0316 l -11.7475,7.7007 v 55.5397 c 0,54.4427 -0.2366,56.0391 -11.9772,80.82 -20.7269,43.7482 -56.0094,69.6149 -110.7935,81.2262 -33.3196,7.062 -214.8092,6.8623 -266.3819,-0.293 z"
     id="path861"
     inkscape:connector-curvature="0"
     transform="translate(0,-256)" />
</svg>
