<?xml version="1.0" encoding="UTF-8" standalone="no"?>
<svg
   xmlns:dc="http://purl.org/dc/elements/1.1/"
   xmlns:cc="http://creativecommons.org/ns#"
   xmlns:rdf="http://www.w3.org/1999/02/22-rdf-syntax-ns#"
   xmlns:svg="http://www.w3.org/2000/svg"
   xmlns="http://www.w3.org/2000/svg"
   xmlns:sodipodi="http://sodipodi.sourceforge.net/DTD/sodipodi-0.dtd"
   xmlns:inkscape="http://www.inkscape.org/namespaces/inkscape"
   viewBox="0 -256 1792 1792"
   id="svg3888"
   version="1.1"
   inkscape:version="0.92.4 (33fec40, 2019-01-16)"
   width="100%"
   height="100%"
   sodipodi:docname="Thumbs_up4.svg">
  <metadata
     id="metadata3898">
    <rdf:RDF>
      <cc:Work
         rdf:about="">
        <dc:format>image/svg+xml</dc:format>
        <dc:type
           rdf:resource="http://purl.org/dc/dcmitype/StillImage" />
        <dc:title></dc:title>
      </cc:Work>
    </rdf:RDF>
  </metadata>
  <defs
     id="defs3896" />
  <sodipodi:namedview
     pagecolor="#ffffff"
     bordercolor="#666666"
     borderopacity="1"
     objecttolerance="10"
     gridtolerance="10"
     guidetolerance="10"
     inkscape:pageopacity="0"
     inkscape:pageshadow="2"
     inkscape:window-width="1299"
     inkscape:window-height="713"
     id="namedview3894"
     showgrid="false"
     inkscape:zoom="0.13169643"
     inkscape:cx="-375.8644"
     inkscape:cy="896.00001"
     inkscape:window-x="1920"
     inkscape:window-y="27"
     inkscape:window-maximized="1"
     inkscape:current-layer="svg3888" />
  <g
     transform="matrix(1,0,0,-1,129.08475,1346.1695)"
     id="g3890"
     style="fill:#ffffff;fill-opacity:1">
    <path
       d="m 256,192 q 0,26 -19,45 -19,19 -45,19 -26,0 -45,-19 -19,-19 -19,-45 0,-26 19,-45 19,-19 45,-19 26,0 45,19 19,19 19,45 z m 1152,576 q 0,51 -39,89.5 -39,38.5 -89,38.5 H 928 q 0,58 48,159.5 48,101.5 48,160.5 0,98 -32,145 -32,47 -128,47 -26,-26 -38,-85 -12,-59 -30.5,-125.5 Q 777,1131 736,1088 714,1065 659,997 655,992 636,967 617,942 604.5,926 592,910 570,883.5 548,857 530,839.5 512,822 491.5,804 471,786 451.5,777 432,768 416,768 H 384 V 128 h 32 q 13,0 31.5,-3 18.5,-3 33,-6.5 14.5,-3.5 38,-11 Q 542,100 553.5,96 565,92 589,83.5 613,75 618,73 829,0 960,0 h 121 q 192,0 192,167 0,26 -5,56 30,16 47.5,52.5 17.5,36.5 17.5,73.5 0,37 -18,69 53,50 53,119 0,25 -10,55.5 -10,30.5 -25,47.5 32,1 53.5,47 21.5,46 21.5,81 z m 128,1 q 0,-89 -49,-163 9,-33 9,-69 0,-77 -38,-144 3,-21 3,-43 0,-101 -60,-178 1,-139 -85,-219.5 -86,-80.5 -227,-80.5 h -36 -93 q -96,0 -189.5,22.5 Q 677,-83 554,-40 438,0 416,0 H 128 Q 75,0 37.5,37.5 0,75 0,128 V 768 Q 0,821 37.5,858.5 75,896 128,896 h 274 q 36,24 137,155 58,75 107,128 24,25 35.5,85.5 11.5,60.5 30.5,126.5 19,66 62,108 39,37 90,37 84,0 151,-32.5 67,-32.5 102,-101.5 35,-69 35,-186 0,-93 -48,-192 h 176 q 104,0 180,-76 76,-76 76,-179 z"
       id="path3892"
       inkscape:connector-curvature="0"
       style="fill:#ffffff;fill-opacity:1" />
  </g>
  <path
     style="opacity:0.5;fill:#ffffff;fill-opacity:1;stroke:none;stroke-width:7.59322023;stroke-opacity:1"
     d="m 953.70848,1582.2236 c -79.70593,-16.4567 -132.99,-31.8428 -258.16949,-74.5479 -50.11525,-17.0968 -110.7661,-33.3695 -134.77966,-36.1615 l -43.66102,-5.0763 V 1152.3647 838.29152 h 19.22694 c 53.33004,0 110.16564,-46.89079 209.98266,-173.2409 38.55127,-48.79886 88.61782,-110.65055 111.25901,-137.44817 50.27106,-59.49978 63.95357,-89.435 88.649,-193.95037 10.56859,-44.72809 24.26841,-93.41686 30.44407,-108.19727 l 11.22845,-26.87347 42.07236,3.48897 c 78.4997,6.5098 111.0156,50.87971 115.6769,157.84832 3.0429,69.82825 -0.1275,82.12012 -55.7912,216.3038 -15.5686,37.52981 -29.9486,82.80438 -31.9555,100.61017 l -3.6491,32.37417 h 187.2653 c 203.7584,0 218.949,2.53002 256.5318,42.72583 22.8297,24.41705 36.5508,55.48941 36.5508,82.77178 0,35.36698 -30.9348,102.86398 -53.4076,116.53048 -16.0202,9.74252 -19.6866,15.89774 -14.3575,24.10396 3.9361,6.06128 12.39,28.60318 18.7864,50.09318 14.0993,47.369 4.5713,97.4369 -25.2975,132.934 -17.3148,20.5774 -18.2143,25.0645 -10.3128,51.4378 4.7613,15.8915 8.6234,38.7481 8.5827,50.7924 -0.095,28.0359 -32.4146,97.8076 -49.8179,107.547 -10.9711,6.1398 -13.0647,16.7309 -11.7857,59.6207 2.535,85.0034 -36.2158,141.0636 -112.0731,162.1347 -46.9927,13.0533 -254.0428,8.2552 -331.19832,-7.675 z"
     id="path1431"
     inkscape:connector-curvature="0"
     transform="translate(0,-256)" />
</svg>
